<mxfile host="app.diagrams.net" modified="2023-08-05T07:02:20.277Z" agent="Mozilla/5.0 (Macintosh; Intel Mac OS X 10_15_7) AppleWebKit/537.36 (KHTML, like Gecko) Chrome/115.0.0.0 Safari/537.36" etag="-XXDMhBfP-R1MUUfF3GZ" version="21.6.6" type="github">
  <diagram name="Страница 1" id="nZFUpc0RBKhRZk-0Rlp9">
    <mxGraphModel dx="1544" dy="1580" grid="1" gridSize="10" guides="1" tooltips="1" connect="1" arrows="1" fold="1" page="1" pageScale="1" pageWidth="827" pageHeight="1169" math="0" shadow="0">
      <root>
        <mxCell id="0" />
        <mxCell id="1" parent="0" />
        <mxCell id="1MLYOPacNlqvhYup8keJ-1" value="test" style="rounded=0;whiteSpace=wrap;html=1;" parent="1" vertex="1">
          <mxGeometry x="354" y="190" width="256" height="210" as="geometry" />
        </mxCell>
        <mxCell id="iN2BgBScwwk0-U-nFmzM-1" value="" style="rounded=1;whiteSpace=wrap;html=1;absoluteArcSize=1;arcSize=14;strokeWidth=2;" parent="1" vertex="1">
          <mxGeometry x="190" y="230" width="100" height="100" as="geometry" />
        </mxCell>
        <mxCell id="iN2BgBScwwk0-U-nFmzM-2" value="test" style="rounded=0;whiteSpace=wrap;html=1;" parent="1" vertex="1">
          <mxGeometry x="780" y="200" width="256" height="210" as="geometry" />
        </mxCell>
        <mxCell id="iN2BgBScwwk0-U-nFmzM-3" value="test" style="rounded=0;whiteSpace=wrap;html=1;" parent="1" vertex="1">
          <mxGeometry x="-330" y="175" width="256" height="210" as="geometry" />
        </mxCell>
        <mxCell id="iN2BgBScwwk0-U-nFmzM-4" value="test" style="rounded=0;whiteSpace=wrap;html=1;" parent="1" vertex="1">
          <mxGeometry x="380" y="-530" width="256" height="210" as="geometry" />
        </mxCell>
        <mxCell id="iN2BgBScwwk0-U-nFmzM-5" value="test" style="rounded=0;whiteSpace=wrap;html=1;direction=south;" parent="1" vertex="1">
          <mxGeometry x="377" y="707" width="210" height="256" as="geometry" />
        </mxCell>
      </root>
    </mxGraphModel>
  </diagram>
</mxfile>
